<svg width="1920" height="1080" viewBox="0 0 1920 1080" fill="none" xmlns="http://www.w3.org/2000/svg">
<g opacity="0.25">
<path d="M0 -54V1134.5" stroke="#7DCFB6" stroke-opacity="0.5"/>
<path d="M30 -54V1134.5" stroke="#7DCFB6" stroke-opacity="0.5"/>
<path d="M60 -54V1134.5" stroke="#7DCFB6" stroke-opacity="0.5"/>
<path d="M90 -54V1134.5" stroke="#7DCFB6" stroke-opacity="0.5"/>
<path d="M120 -54V1134.5" stroke="#7DCFB6" stroke-opacity="0.5"/>
<path d="M150 -54V1134.5" stroke="#7DCFB6" stroke-opacity="0.5"/>
<path d="M180 -54V1134.5" stroke="#7DCFB6" stroke-opacity="0.5"/>
<path d="M210 -54V1134.5" stroke="#7DCFB6" stroke-opacity="0.5"/>
<path d="M240 -54V1134.5" stroke="#7DCFB6" stroke-opacity="0.5"/>
<path d="M270 -54V1134.5" stroke="#7DCFB6" stroke-opacity="0.5"/>
<path d="M300 -54V1134.5" stroke="#7DCFB6" stroke-opacity="0.5"/>
<path d="M330 -54V1134.5" stroke="#7DCFB6" stroke-opacity="0.5"/>
<path d="M360 -54V1134.5" stroke="#7DCFB6" stroke-opacity="0.5"/>
<path d="M390 -54V1134.5" stroke="#7DCFB6" stroke-opacity="0.5"/>
<path d="M420 -54V1134.5" stroke="#7DCFB6" stroke-opacity="0.5"/>
<path d="M450 -54V1134.5" stroke="#7DCFB6" stroke-opacity="0.5"/>
<path d="M480 -54V1134.5" stroke="#7DCFB6" stroke-opacity="0.5"/>
<path d="M510 -54V1134.5" stroke="#7DCFB6" stroke-opacity="0.5"/>
<path d="M540 -54V1134.5" stroke="#7DCFB6" stroke-opacity="0.5"/>
<path d="M570 -54V1134.5" stroke="#7DCFB6" stroke-opacity="0.5"/>
<path d="M600 -54V1134.5" stroke="#7DCFB6" stroke-opacity="0.5"/>
<path d="M630 -54V1134.5" stroke="#7DCFB6" stroke-opacity="0.5"/>
<path d="M660 -54V1134.5" stroke="#7DCFB6" stroke-opacity="0.5"/>
<path d="M690 -54V1134.5" stroke="#7DCFB6" stroke-opacity="0.5"/>
<path d="M720 -54V1134.5" stroke="#7DCFB6" stroke-opacity="0.5"/>
<path d="M750 -54V1134.5" stroke="#7DCFB6" stroke-opacity="0.5"/>
<path d="M780 -54V1134.5" stroke="#7DCFB6" stroke-opacity="0.5"/>
<path d="M810 -54V1134.5" stroke="#7DCFB6" stroke-opacity="0.5"/>
<path d="M840 -54V1134.5" stroke="#7DCFB6" stroke-opacity="0.5"/>
<path d="M870 -54V1134.5" stroke="#7DCFB6" stroke-opacity="0.5"/>
<path d="M900 -54V1134.5" stroke="#7DCFB6" stroke-opacity="0.5"/>
<path d="M930 -54V1134.5" stroke="#7DCFB6" stroke-opacity="0.5"/>
<path d="M960 -54V1134.5" stroke="#7DCFB6" stroke-opacity="0.5"/>
<path d="M990 -54V1134.5" stroke="#7DCFB6" stroke-opacity="0.5"/>
<path d="M1020 -54V1134.5" stroke="#7DCFB6" stroke-opacity="0.5"/>
<path d="M1050 -54V1134.5" stroke="#7DCFB6" stroke-opacity="0.5"/>
<path d="M1080 -54V1134.5" stroke="#7DCFB6" stroke-opacity="0.5"/>
<path d="M1110 -54V1134.5" stroke="#7DCFB6" stroke-opacity="0.5"/>
<path d="M1140 -54V1134.5" stroke="#7DCFB6" stroke-opacity="0.5"/>
<path d="M1170 -54V1134.5" stroke="#7DCFB6" stroke-opacity="0.5"/>
<path d="M1200 -54V1134.5" stroke="#7DCFB6" stroke-opacity="0.5"/>
<path d="M1230 -54V1134.5" stroke="#7DCFB6" stroke-opacity="0.5"/>
<path d="M1260 -54V1134.5" stroke="#7DCFB6" stroke-opacity="0.5"/>
<path d="M1290 -54V1134.5" stroke="#7DCFB6" stroke-opacity="0.5"/>
<path d="M1320 -54V1134.5" stroke="#7DCFB6" stroke-opacity="0.5"/>
<path d="M1350 -54V1134.5" stroke="#7DCFB6" stroke-opacity="0.5"/>
<path d="M1380 -54V1134.5" stroke="#7DCFB6" stroke-opacity="0.5"/>
<path d="M1410 -54V1134.5" stroke="#7DCFB6" stroke-opacity="0.5"/>
<path d="M1440 -54V1134.5" stroke="#7DCFB6" stroke-opacity="0.5"/>
<path d="M1470 -54V1134.5" stroke="#7DCFB6" stroke-opacity="0.5"/>
<path d="M1500 -54V1134.5" stroke="#7DCFB6" stroke-opacity="0.5"/>
<path d="M1530 -54V1134.5" stroke="#7DCFB6" stroke-opacity="0.5"/>
<path d="M1560 -54V1134.5" stroke="#7DCFB6" stroke-opacity="0.5"/>
<path d="M1590 -54V1134.5" stroke="#7DCFB6" stroke-opacity="0.5"/>
<path d="M1620 -54V1134.5" stroke="#7DCFB6" stroke-opacity="0.5"/>
<path d="M1650 -54V1134.5" stroke="#7DCFB6" stroke-opacity="0.5"/>
<path d="M1680 -54V1134.5" stroke="#7DCFB6" stroke-opacity="0.5"/>
<path d="M1710 -54V1134.5" stroke="#7DCFB6" stroke-opacity="0.5"/>
<path d="M1740 -54V1134.5" stroke="#7DCFB6" stroke-opacity="0.5"/>
<path d="M1770 -54V1134.5" stroke="#7DCFB6" stroke-opacity="0.5"/>
<path d="M1800 -54V1134.5" stroke="#7DCFB6" stroke-opacity="0.5"/>
<path d="M1830 -54V1134.5" stroke="#7DCFB6" stroke-opacity="0.5"/>
<path d="M1860 -54V1134.5" stroke="#7DCFB6" stroke-opacity="0.5"/>
<path d="M1890 -54V1134.5" stroke="#7DCFB6" stroke-opacity="0.5"/>
<path d="M1920 -54V1134.5" stroke="#7DCFB6" stroke-opacity="0.5"/>
<path d="M-58 0H1977.5" stroke="#7DCFB6" stroke-opacity="0.5"/>
<path d="M-58 30H1977.5" stroke="#7DCFB6" stroke-opacity="0.5"/>
<path d="M-58 60H1977.5" stroke="#7DCFB6" stroke-opacity="0.5"/>
<path d="M-58 90H1977.5" stroke="#7DCFB6" stroke-opacity="0.5"/>
<path d="M-58 120H1977.5" stroke="#7DCFB6" stroke-opacity="0.5"/>
<path d="M-58 150H1977.5" stroke="#7DCFB6" stroke-opacity="0.5"/>
<path d="M-58 180H1977.5" stroke="#7DCFB6" stroke-opacity="0.5"/>
<path d="M-58 210H1977.5" stroke="#7DCFB6" stroke-opacity="0.5"/>
<path d="M-58 240H1977.5" stroke="#7DCFB6" stroke-opacity="0.5"/>
<path d="M-58 270H1977.5" stroke="#7DCFB6" stroke-opacity="0.5"/>
<path d="M-58 300H1977.5" stroke="#7DCFB6" stroke-opacity="0.5"/>
<path d="M-58 330H1977.5" stroke="#7DCFB6" stroke-opacity="0.5"/>
<path d="M-58 360H1977.5" stroke="#7DCFB6" stroke-opacity="0.5"/>
<path d="M-58 390H1977.5" stroke="#7DCFB6" stroke-opacity="0.5"/>
<path d="M-58 420H1977.5" stroke="#7DCFB6" stroke-opacity="0.5"/>
<path d="M-58 450H1977.5" stroke="#7DCFB6" stroke-opacity="0.5"/>
<path d="M-58 480H1977.5" stroke="#7DCFB6" stroke-opacity="0.5"/>
<path d="M-58 510H1977.5" stroke="#7DCFB6" stroke-opacity="0.5"/>
<path d="M-58 540H1977.5" stroke="#7DCFB6" stroke-opacity="0.5"/>
<path d="M-58 570H1977.5" stroke="#7DCFB6" stroke-opacity="0.5"/>
<path d="M-58 600H1977.5" stroke="#7DCFB6" stroke-opacity="0.5"/>
<path d="M-58 630H1977.5" stroke="#7DCFB6" stroke-opacity="0.5"/>
<path d="M-58 660H1977.5" stroke="#7DCFB6" stroke-opacity="0.5"/>
<path d="M-58 690H1977.5" stroke="#7DCFB6" stroke-opacity="0.5"/>
<path d="M-58 720H1977.5" stroke="#7DCFB6" stroke-opacity="0.5"/>
<path d="M-58 750H1977.5" stroke="#7DCFB6" stroke-opacity="0.5"/>
<path d="M-58 780H1977.5" stroke="#7DCFB6" stroke-opacity="0.5"/>
<path d="M-58 810H1977.5" stroke="#7DCFB6" stroke-opacity="0.5"/>
<path d="M-58 840H1977.5" stroke="#7DCFB6" stroke-opacity="0.5"/>
<path d="M-58 870H1977.5" stroke="#7DCFB6" stroke-opacity="0.5"/>
<path d="M-58 900H1977.5" stroke="#7DCFB6" stroke-opacity="0.5"/>
<path d="M-58 930H1977.5" stroke="#7DCFB6" stroke-opacity="0.5"/>
<path d="M-58 960H1977.5" stroke="#7DCFB6" stroke-opacity="0.5"/>
<path d="M-58 990H1977.5" stroke="#7DCFB6" stroke-opacity="0.5"/>
<path d="M-58 1020H1977.5" stroke="#7DCFB6" stroke-opacity="0.5"/>
<path d="M-58 1050H1977.5" stroke="#7DCFB6" stroke-opacity="0.5"/>
<path d="M-58 1080H1977.5" stroke="#7DCFB6" stroke-opacity="0.5"/>
</g>
</svg>
