<svg width="36" height="26" viewBox="0 0 36 26" fill="none" xmlns="http://www.w3.org/2000/svg">
<mask id="mask0_479_8486" style="mask-type:alpha" maskUnits="userSpaceOnUse" x="1" y="1" width="34" height="24">
<path d="M33.9882 1.875H2.01178C1.45319 1.875 1 2.36786 1 2.97024V23.7798C1 24.3821 1.45319 24.875 2.01178 24.875H33.9882C34.5468 24.875 35 24.3821 35 23.7798V2.97024C35 2.36786 34.5468 1.875 33.9882 1.875Z" fill="#E74467"/>
</mask>
<g mask="url(#mask0_479_8486)">
<g filter="url(#filter0_f_479_8486)">
<path d="M33.9882 1.875H2.01178C1.45319 1.875 1 2.36786 1 2.97024V23.7798C1 24.3821 1.45319 24.875 2.01178 24.875H33.9882C34.5468 24.875 35 24.3821 35 23.7798V2.97024C35 2.36786 34.5468 1.875 33.9882 1.875Z" fill="#E74467"/>
</g>
</g>
<path d="M33.0574 2.86914H2.95256C2.35246 2.86914 1.875 3.37785 1.875 3.98849V22.8811C1.875 23.4918 2.35246 24.0005 2.95256 24.0005H33.0574C33.6575 24.0005 34.135 23.4918 34.135 22.8811V3.98849C34.135 3.37785 33.6575 2.86914 33.0574 2.86914Z" fill="#06070E" stroke="#06070E" stroke-width="0.25"/>
<path d="M33.0372 3.49219H3.93445C3.66592 3.49219 3.44824 3.71033 3.44824 3.97942V22.892C3.44824 23.1611 3.66592 23.3792 3.93445 23.3792H33.0372C33.3057 23.3792 33.5234 23.1611 33.5234 22.892V3.97942C33.5234 3.71033 33.3057 3.49219 33.0372 3.49219Z" fill="#06070E"/>
<path opacity="0.8" d="M33.0372 3.49219H3.93445C3.66592 3.49219 3.44824 3.71033 3.44824 3.97942V22.892C3.44824 23.1611 3.66592 23.3792 3.93445 23.3792H33.0372C33.3057 23.3792 33.5234 23.1611 33.5234 22.892V3.97942C33.5234 3.71033 33.3057 3.49219 33.0372 3.49219Z" fill="#E9D758"/>
<path d="M32.5511 3.49707H4.42077C4.15225 3.49707 3.93457 3.71645 3.93457 3.98707V23.0071C3.93457 23.2777 4.15225 23.4971 4.42077 23.4971H32.5511C32.8196 23.4971 33.0373 23.2777 33.0373 23.0071V3.98707C33.0373 3.71645 32.8196 3.49707 32.5511 3.49707Z" fill="#E74467"/>
<mask id="mask1_479_8486" style="mask-type:alpha" maskUnits="userSpaceOnUse" x="4" y="3" width="31" height="21">
<path d="M33.5511 3.49707H5.42077C5.15225 3.49707 4.93457 3.71645 4.93457 3.98707V23.0071C4.93457 23.2777 5.15225 23.4971 5.42077 23.4971H33.5511C33.8196 23.4971 34.0373 23.2777 34.0373 23.0071V3.98707C34.0373 3.71645 33.8196 3.49707 33.5511 3.49707Z" fill="url(#paint0_linear_479_8486)"/>
</mask>
<g mask="url(#mask1_479_8486)">
<path d="M34.5511 3.49707H6.42077C6.15225 3.49707 5.93457 3.71645 5.93457 3.98707V23.0071C5.93457 23.2777 6.15225 23.4971 6.42077 23.4971H34.5511C34.8196 23.4971 35.0373 23.2777 35.0373 23.0071V3.98707C35.0373 3.71645 34.8196 3.49707 34.5511 3.49707Z" fill="#E74467"/>
</g>
<path d="M29.6434 3.49219H2.96179C2.69388 3.49219 2.47559 3.71094 2.47559 3.98936V22.882C2.47559 23.1604 2.69388 23.3792 2.96179 23.3792H32.0645C32.3324 23.3792 32.5507 23.1604 32.5507 22.882V3.98936C32.5507 3.71094 32.3324 3.49219 32.0645 3.49219H29.6434Z" fill="#06070E"/>
<g opacity="0.8">
<path d="M32.0645 3.49219H2.96179C2.69327 3.49219 2.47559 3.71033 2.47559 3.97942V22.892C2.47559 23.1611 2.69327 23.3792 2.96179 23.3792H32.0645C32.333 23.3792 32.5507 23.1611 32.5507 22.892V3.97942C32.5507 3.71033 32.333 3.49219 32.0645 3.49219Z" fill="#E9D758"/>
<path d="M32.0645 3.49219H2.96179C2.69327 3.49219 2.47559 3.71033 2.47559 3.97942V22.892C2.47559 23.1611 2.69327 23.3792 2.96179 23.3792H32.0645C32.333 23.3792 32.5507 23.1611 32.5507 22.892V3.97942C32.5507 3.71033 32.333 3.49219 32.0645 3.49219Z" fill="url(#paint1_linear_479_8486)"/>
</g>
<path d="M31.5783 3.49219H2.96179C2.69327 3.49219 2.47559 3.71033 2.47559 3.97942V22.892C2.47559 23.1611 2.69327 23.3792 2.96179 23.3792H31.5783C31.8468 23.3792 32.0645 23.1611 32.0645 22.892V3.97942C32.0645 3.71033 31.8468 3.49219 31.5783 3.49219Z" fill="#E9D758"/>
<path d="M22.8565 10.8008H29.6336C30.0404 10.8008 30.3678 11.1289 30.3678 11.5366V15.3251C30.3678 15.7328 30.0404 16.0708 29.6236 16.0708H22.8466C22.4397 16.0708 22.1123 15.7427 22.1123 15.335V11.5465C22.1123 11.1389 22.4397 10.8107 22.8466 10.8107L22.8565 10.8008Z" fill="#D2D4DE"/>
<path d="M29.6334 11.0489C29.9013 11.0489 30.1196 11.2677 30.1196 11.5362V15.3246C30.1196 15.5931 29.9013 15.8119 29.6334 15.8119H22.8564C22.5884 15.8119 22.3701 15.5931 22.3701 15.3246V11.5362C22.3701 11.2677 22.5884 11.0489 22.8564 11.0489H29.6334ZM29.6334 10.5518H22.8564C22.3106 10.5518 21.874 10.9992 21.874 11.5362V15.3246C21.874 15.8715 22.3205 16.309 22.8564 16.309H29.6334C30.1792 16.309 30.6158 15.8616 30.6158 15.3246V11.5362C30.6158 10.9893 30.1692 10.5518 29.6334 10.5518Z" fill="#06070E"/>
<path d="M22.3604 12.9374H26.6965L27.5895 12.0127H30.1297" stroke="#06070E" stroke-width="0.5" stroke-miterlimit="10"/>
<path d="M22.3604 13.9326H26.6965L27.5895 14.8574H30.1297" stroke="#06070E" stroke-width="0.5" stroke-miterlimit="10"/>
<path d="M31.777 3.48242H31.1221C31.4197 3.48242 31.6579 3.73101 31.6579 4.02932V22.8424C31.6579 23.1407 31.4197 23.3893 31.1221 23.3893H31.8166C31.9556 23.3893 32.0548 23.0811 32.0548 22.8921V3.9796C32.0548 3.6614 31.8563 3.48242 31.767 3.48242H31.777Z" fill="#06070E"/>
<defs>
<filter id="filter0_f_479_8486" x="0" y="0.875" width="36" height="25" filterUnits="userSpaceOnUse" color-interpolation-filters="sRGB">
<feFlood flood-opacity="0" result="BackgroundImageFix"/>
<feBlend mode="normal" in="SourceGraphic" in2="BackgroundImageFix" result="shape"/>
<feGaussianBlur stdDeviation="0.5" result="effect1_foregroundBlur_479_8486"/>
</filter>
<linearGradient id="paint0_linear_479_8486" x1="2" y1="6.5" x2="35" y2="6.5" gradientUnits="userSpaceOnUse">
<stop offset="0.958333" stop-color="#7DCFB6"/>
<stop offset="1" stop-color="#7DCFB6" stop-opacity="0"/>
</linearGradient>
<linearGradient id="paint1_linear_479_8486" x1="34" y1="14" x2="2" y2="14" gradientUnits="userSpaceOnUse">
<stop offset="0.0452881" stop-color="#E74467"/>
<stop offset="0.0662131" stop-color="#E9D758"/>
</linearGradient>
</defs>
</svg>
