<svg width="44" height="26" viewBox="0 0 44 26" fill="none" xmlns="http://www.w3.org/2000/svg">
<path d="M42.0105 0H0.98954C0.443032 0 0 0.369365 0 0.825V24.175C0 24.6306 0.443032 25 0.98954 25H42.0105C42.557 25 43 24.6306 43 24.175V0.825C43 0.369365 42.557 0 42.0105 0Z" fill="#06070E"/>
<path opacity="0.8" d="M42.0105 0H0.98954C0.443032 0 0 0.369365 0 0.825V24.175C0 24.6306 0.443032 25 0.98954 25H42.0105C42.557 25 43 24.6306 43 24.175V0.825C43 0.369365 42.557 0 42.0105 0Z" fill="#E9D758"/>
<path d="M41.01 0.00195312H0.99C0.443238 0.00195312 0 0.371318 0 0.826953V24.177C0 24.6326 0.443238 25.002 0.99 25.002H41.01C41.5568 25.002 42 24.6326 42 24.177V0.826953C42 0.371318 41.5568 0.00195312 41.01 0.00195312Z" fill="#EE4266"/>
<mask id="mask0_479_8474" style="mask-type:alpha" maskUnits="userSpaceOnUse" x="2" y="0" width="42" height="26">
<path d="M43.01 0.00195312H2.99C2.44324 0.00195312 2 0.371318 2 0.826953V24.177C2 24.6326 2.44324 25.002 2.99 25.002H43.01C43.5568 25.002 44 24.6326 44 24.177V0.826953C44 0.371318 43.5568 0.00195312 43.01 0.00195312Z" fill="url(#paint0_linear_479_8474)"/>
</mask>
<g mask="url(#mask0_479_8474)">
<path d="M43.01 0.00195312H2.99C2.44324 0.00195312 2 0.371318 2 0.826953V24.177C2 24.6326 2.44324 25.002 2.99 25.002H43.01C43.5568 25.002 44 24.6326 44 24.177V0.826953C44 0.371318 43.5568 0.00195312 43.01 0.00195312Z" fill="#EE4266"/>
</g>
<path d="M40.0093 0H0.990725C0.443563 0 0 0.369365 0 0.825V24.175C0 24.6306 0.443563 25 0.990725 25H40.0093C40.5564 25 41 24.6306 41 24.175V0.825C41 0.369365 40.5564 0 40.0093 0Z" fill="#06070E"/>
<path d="M40.0093 0H0.990725C0.443563 0 0 0.369365 0 0.825V24.175C0 24.6306 0.443563 25 0.990725 25H40.0093C40.5564 25 41 24.6306 41 24.175V0.825C41 0.369365 40.5564 0 40.0093 0Z" fill="#E9D758"/>
<path d="M40.0093 0H0.990725C0.443563 0 0 0.369365 0 0.825V24.175C0 24.6306 0.443563 25 0.990725 25H40.0093C40.5564 25 41 24.6306 41 24.175V0.825C41 0.369365 40.5564 0 40.0093 0Z" fill="url(#paint1_linear_479_8474)"/>
<path d="M39.0222 0H0.9778C0.437776 0 0 0.365634 0 0.816667V24.1833C0 24.6344 0.437776 25 0.9778 25H39.0222C39.5622 25 40 24.6344 40 24.1833V0.816667C40 0.365634 39.5622 0 39.0222 0Z" fill="#06070E"/>
<path d="M38.4818 1H1.51823C1.23202 1 1 1.19124 1 1.42714V23.5729C1 23.8088 1.23202 24 1.51823 24H38.4818C38.768 24 39 23.8088 39 23.5729V1.42714C39 1.19124 38.768 1 38.4818 1Z" fill="#E9D758"/>
<path d="M42.75 1C42.8881 1 43 1.11193 43 1.25V23.75C43 23.8881 42.8881 24 42.75 24H1.25C1.11193 24 1 23.8881 1 23.75V1.25C1 1.11193 1.11193 1 1.25 1H42.75ZM43 0H1C0.45 0 0 0.375 0 0.833333V24.1667C0 24.625 0.45 25 1 25H43C43.55 25 44 24.625 44 24.1667V0.833333C44 0.375 43.55 0 43 0Z" fill="#06070E"/>
<path opacity="0.8" d="M36.49 3H3.51C3.22833 3 3 3.2218 3 3.4954V21.5046C3 21.7782 3.22833 22 3.51 22H36.49C36.7717 22 37 21.7782 37 21.5046V3.4954C37 3.2218 36.7717 3 36.49 3Z" fill="#06070E"/>
<path d="M35 4H5C4.37 4 3.8 3.54973 3.44 3.09333C3.3 2.90883 3 3.01565 3 3.25841V21.495C3 21.7767 3.22 22 3.5 22H36.5C36.78 22 37 21.7767 37 21.495V3.25841C37 3.02536 36.71 2.91854 36.56 3.09333C36.19 3.55944 35.63 4 35 4Z" fill="#E9D758"/>
<path d="M35 4H5C4.37 4 3.8 3.54973 3.44 3.09333C3.3 2.90883 3 3.01565 3 3.25841V21.495C3 21.7767 3.22 22 3.5 22H36.5C36.78 22 37 21.7767 37 21.495V3.25841C37 3.02536 36.71 2.91854 36.56 3.09333C36.19 3.55944 35.63 4 35 4Z" fill="#06070E" fill-opacity="0.2"/>
<path d="M4 4V19.771C4 19.9046 4.1 20 4.22 20H33.78C33.9 20 34 19.8951 34 19.771V4H4Z" fill="#E9D758"/>
<path d="M18.6464 10.3536C18.8417 10.1583 19.1583 10.1583 19.3536 10.3536L22.1464 13.1464C22.4614 13.4614 22.2383 14 21.7929 14L16.2071 14C15.7617 14 15.5386 13.4614 15.8536 13.1464L18.6464 10.3536Z" fill="#E74467"/>
<defs>
<linearGradient id="paint0_linear_479_8474" x1="-2.23507" y1="3.75561" x2="44" y2="3.75561" gradientUnits="userSpaceOnUse">
<stop offset="0.935127" stop-color="#EE4266"/>
<stop offset="1" stop-color="#EE4266" stop-opacity="0"/>
</linearGradient>
<linearGradient id="paint1_linear_479_8474" x1="41" y1="11.9961" x2="-1.69088e-07" y2="11.9961" gradientUnits="userSpaceOnUse">
<stop stop-color="#E74467"/>
<stop offset="0.0237153" stop-color="#E5DB5A" stop-opacity="0.8"/>
</linearGradient>
</defs>
</svg>
